<mxfile host="65bd71144e">
    <diagram id="8oew3TmUjxfOQI_JFF1C" name="第 1 页">
        <mxGraphModel dx="1405" dy="934" grid="1" gridSize="10" guides="1" tooltips="1" connect="1" arrows="1" fold="1" page="1" pageScale="1" pageWidth="827" pageHeight="1169" math="0" shadow="0">
            <root>
                <mxCell id="0"/>
                <mxCell id="1" parent="0"/>
                <mxCell id="58" value="Project" style="shape=folder;fontStyle=1;tabWidth=110;tabHeight=30;tabPosition=left;html=1;boundedLbl=1;labelInHeader=1;container=1;collapsible=0;recursiveResize=0;fontSize=12;fontColor=#666666;" parent="1" vertex="1">
                    <mxGeometry x="200" y="240" width="480" height="640" as="geometry"/>
                </mxCell>
                <mxCell id="4" value="Development" style="shape=table;startSize=30;container=1;collapsible=0;childLayout=tableLayout;fontStyle=1;align=center;" parent="58" vertex="1">
                    <mxGeometry x="40" y="78" width="160" height="282" as="geometry"/>
                </mxCell>
                <mxCell id="5" value="" style="shape=tableRow;horizontal=0;startSize=0;swimlaneHead=0;swimlaneBody=0;top=0;left=0;bottom=0;right=0;collapsible=0;dropTarget=0;fillColor=none;points=[[0,0.5],[1,0.5]];portConstraint=eastwest;fontColor=#666666;fontStyle=0;fontSize=12;" parent="4" vertex="1">
                    <mxGeometry y="30" width="160" height="42" as="geometry"/>
                </mxCell>
                <mxCell id="6" value="Front End" style="shape=partialRectangle;html=1;whiteSpace=wrap;connectable=0;fillColor=none;top=0;left=0;bottom=0;right=0;overflow=hidden;fontColor=#666666;fontStyle=1" parent="5" vertex="1">
                    <mxGeometry width="80" height="42" as="geometry">
                        <mxRectangle width="80" height="42" as="alternateBounds"/>
                    </mxGeometry>
                </mxCell>
                <mxCell id="7" value="Back End" style="shape=partialRectangle;html=1;whiteSpace=wrap;connectable=0;fillColor=none;top=0;left=0;bottom=0;right=0;overflow=hidden;fontColor=#666666;fontStyle=1" parent="5" vertex="1">
                    <mxGeometry x="80" width="80" height="42" as="geometry">
                        <mxRectangle width="80" height="42" as="alternateBounds"/>
                    </mxGeometry>
                </mxCell>
                <mxCell id="9" value="" style="shape=tableRow;horizontal=0;startSize=0;swimlaneHead=0;swimlaneBody=0;top=0;left=0;bottom=0;right=0;collapsible=0;dropTarget=0;fillColor=none;points=[[0,0.5],[1,0.5]];portConstraint=eastwest;fontColor=#666666;" parent="4" vertex="1">
                    <mxGeometry y="72" width="160" height="42" as="geometry"/>
                </mxCell>
                <mxCell id="10" value="/web" style="shape=partialRectangle;html=1;whiteSpace=wrap;connectable=0;fillColor=none;top=0;left=0;bottom=0;right=0;overflow=hidden;fontColor=#666666;" parent="9" vertex="1">
                    <mxGeometry width="80" height="42" as="geometry">
                        <mxRectangle width="80" height="42" as="alternateBounds"/>
                    </mxGeometry>
                </mxCell>
                <mxCell id="11" value="/cmd" style="shape=partialRectangle;html=1;whiteSpace=wrap;connectable=0;fillColor=none;top=0;left=0;bottom=0;right=0;overflow=hidden;fontColor=#666666;" parent="9" vertex="1">
                    <mxGeometry x="80" width="80" height="42" as="geometry">
                        <mxRectangle width="80" height="42" as="alternateBounds"/>
                    </mxGeometry>
                </mxCell>
                <mxCell id="13" value="" style="shape=tableRow;horizontal=0;startSize=0;swimlaneHead=0;swimlaneBody=0;top=0;left=0;bottom=0;right=0;collapsible=0;dropTarget=0;fillColor=none;points=[[0,0.5],[1,0.5]];portConstraint=eastwest;fontColor=#666666;" parent="4" vertex="1">
                    <mxGeometry y="114" width="160" height="42" as="geometry"/>
                </mxCell>
                <mxCell id="14" value="" style="shape=partialRectangle;html=1;whiteSpace=wrap;connectable=0;fillColor=none;top=0;left=0;bottom=0;right=0;overflow=hidden;fontColor=#666666;" parent="13" vertex="1">
                    <mxGeometry width="80" height="42" as="geometry">
                        <mxRectangle width="80" height="42" as="alternateBounds"/>
                    </mxGeometry>
                </mxCell>
                <mxCell id="15" value="/internal" style="shape=partialRectangle;html=1;whiteSpace=wrap;connectable=0;fillColor=none;top=0;left=0;bottom=0;right=0;overflow=hidden;fontColor=#666666;" parent="13" vertex="1">
                    <mxGeometry x="80" width="80" height="42" as="geometry">
                        <mxRectangle width="80" height="42" as="alternateBounds"/>
                    </mxGeometry>
                </mxCell>
                <mxCell id="21" style="shape=tableRow;horizontal=0;startSize=0;swimlaneHead=0;swimlaneBody=0;top=0;left=0;bottom=0;right=0;collapsible=0;dropTarget=0;fillColor=none;points=[[0,0.5],[1,0.5]];portConstraint=eastwest;fontColor=#666666;" parent="4" vertex="1">
                    <mxGeometry y="156" width="160" height="42" as="geometry"/>
                </mxCell>
                <mxCell id="22" style="shape=partialRectangle;html=1;whiteSpace=wrap;connectable=0;fillColor=none;top=0;left=0;bottom=0;right=0;overflow=hidden;fontColor=#666666;" parent="21" vertex="1">
                    <mxGeometry width="80" height="42" as="geometry">
                        <mxRectangle width="80" height="42" as="alternateBounds"/>
                    </mxGeometry>
                </mxCell>
                <mxCell id="23" value="/pkg" style="shape=partialRectangle;html=1;whiteSpace=wrap;connectable=0;fillColor=none;top=0;left=0;bottom=0;right=0;overflow=hidden;fontColor=#666666;" parent="21" vertex="1">
                    <mxGeometry x="80" width="80" height="42" as="geometry">
                        <mxRectangle width="80" height="42" as="alternateBounds"/>
                    </mxGeometry>
                </mxCell>
                <mxCell id="25" style="shape=tableRow;horizontal=0;startSize=0;swimlaneHead=0;swimlaneBody=0;top=0;left=0;bottom=0;right=0;collapsible=0;dropTarget=0;fillColor=none;points=[[0,0.5],[1,0.5]];portConstraint=eastwest;fontColor=#666666;" parent="4" vertex="1">
                    <mxGeometry y="198" width="160" height="42" as="geometry"/>
                </mxCell>
                <mxCell id="26" style="shape=partialRectangle;html=1;whiteSpace=wrap;connectable=0;fillColor=none;top=0;left=0;bottom=0;right=0;overflow=hidden;fontColor=#666666;" parent="25" vertex="1">
                    <mxGeometry width="80" height="42" as="geometry">
                        <mxRectangle width="80" height="42" as="alternateBounds"/>
                    </mxGeometry>
                </mxCell>
                <mxCell id="27" value="/vendor" style="shape=partialRectangle;html=1;whiteSpace=wrap;connectable=0;fillColor=none;top=0;left=0;bottom=0;right=0;overflow=hidden;fontColor=#666666;" parent="25" vertex="1">
                    <mxGeometry x="80" width="80" height="42" as="geometry">
                        <mxRectangle width="80" height="42" as="alternateBounds"/>
                    </mxGeometry>
                </mxCell>
                <mxCell id="29" style="shape=tableRow;horizontal=0;startSize=0;swimlaneHead=0;swimlaneBody=0;top=0;left=0;bottom=0;right=0;collapsible=0;dropTarget=0;fillColor=none;points=[[0,0.5],[1,0.5]];portConstraint=eastwest;fontColor=#666666;" parent="4" vertex="1">
                    <mxGeometry y="240" width="160" height="42" as="geometry"/>
                </mxCell>
                <mxCell id="30" style="shape=partialRectangle;html=1;whiteSpace=wrap;connectable=0;fillColor=none;top=0;left=0;bottom=0;right=0;overflow=hidden;fontColor=#666666;" parent="29" vertex="1">
                    <mxGeometry width="80" height="42" as="geometry">
                        <mxRectangle width="80" height="42" as="alternateBounds"/>
                    </mxGeometry>
                </mxCell>
                <mxCell id="31" value="/third_party" style="shape=partialRectangle;html=1;whiteSpace=wrap;connectable=0;fillColor=none;top=0;left=0;bottom=0;right=0;overflow=hidden;fontColor=#666666;" parent="29" vertex="1">
                    <mxGeometry x="80" width="80" height="42" as="geometry">
                        <mxRectangle width="80" height="42" as="alternateBounds"/>
                    </mxGeometry>
                </mxCell>
                <mxCell id="32" value="Testing" style="shape=table;startSize=30;container=1;collapsible=0;childLayout=tableLayout;fontStyle=1;align=center;" parent="58" vertex="1">
                    <mxGeometry x="240" y="78" width="80" height="72" as="geometry"/>
                </mxCell>
                <mxCell id="36" value="" style="shape=tableRow;horizontal=0;startSize=0;swimlaneHead=0;swimlaneBody=0;top=0;left=0;bottom=0;right=0;collapsible=0;dropTarget=0;fillColor=none;points=[[0,0.5],[1,0.5]];portConstraint=eastwest;fontColor=#666666;" parent="32" vertex="1">
                    <mxGeometry y="30" width="80" height="42" as="geometry"/>
                </mxCell>
                <mxCell id="37" value="/test" style="shape=partialRectangle;html=1;whiteSpace=wrap;connectable=0;fillColor=none;top=0;left=0;bottom=0;right=0;overflow=hidden;fontColor=#666666;" parent="36" vertex="1">
                    <mxGeometry width="80" height="42" as="geometry">
                        <mxRectangle width="80" height="42" as="alternateBounds"/>
                    </mxGeometry>
                </mxCell>
                <mxCell id="51" value="Deployment" style="shape=table;startSize=30;container=1;collapsible=0;childLayout=tableLayout;fontStyle=1;align=center;" parent="58" vertex="1">
                    <mxGeometry x="360" y="78" width="80" height="156" as="geometry"/>
                </mxCell>
                <mxCell id="52" value="" style="shape=tableRow;horizontal=0;startSize=0;swimlaneHead=0;swimlaneBody=0;top=0;left=0;bottom=0;right=0;collapsible=0;dropTarget=0;fillColor=none;points=[[0,0.5],[1,0.5]];portConstraint=eastwest;fontColor=#666666;" parent="51" vertex="1">
                    <mxGeometry y="30" width="80" height="42" as="geometry"/>
                </mxCell>
                <mxCell id="53" value="/configs" style="shape=partialRectangle;html=1;whiteSpace=wrap;connectable=0;fillColor=none;top=0;left=0;bottom=0;right=0;overflow=hidden;fontColor=#666666;" parent="52" vertex="1">
                    <mxGeometry width="80" height="42" as="geometry">
                        <mxRectangle width="80" height="42" as="alternateBounds"/>
                    </mxGeometry>
                </mxCell>
                <mxCell id="54" style="shape=tableRow;horizontal=0;startSize=0;swimlaneHead=0;swimlaneBody=0;top=0;left=0;bottom=0;right=0;collapsible=0;dropTarget=0;fillColor=none;points=[[0,0.5],[1,0.5]];portConstraint=eastwest;fontColor=#666666;" parent="51" vertex="1">
                    <mxGeometry y="72" width="80" height="42" as="geometry"/>
                </mxCell>
                <mxCell id="55" value="/deployments" style="shape=partialRectangle;html=1;whiteSpace=wrap;connectable=0;fillColor=none;top=0;left=0;bottom=0;right=0;overflow=hidden;fontColor=#666666;" parent="54" vertex="1">
                    <mxGeometry width="80" height="42" as="geometry">
                        <mxRectangle width="80" height="42" as="alternateBounds"/>
                    </mxGeometry>
                </mxCell>
                <mxCell id="56" style="shape=tableRow;horizontal=0;startSize=0;swimlaneHead=0;swimlaneBody=0;top=0;left=0;bottom=0;right=0;collapsible=0;dropTarget=0;fillColor=none;points=[[0,0.5],[1,0.5]];portConstraint=eastwest;fontColor=#666666;" parent="51" vertex="1">
                    <mxGeometry y="114" width="80" height="42" as="geometry"/>
                </mxCell>
                <mxCell id="57" value="/init" style="shape=partialRectangle;html=1;whiteSpace=wrap;connectable=0;fillColor=none;top=0;left=0;bottom=0;right=0;overflow=hidden;fontColor=#666666;" parent="56" vertex="1">
                    <mxGeometry width="80" height="42" as="geometry">
                        <mxRectangle width="80" height="42" as="alternateBounds"/>
                    </mxGeometry>
                </mxCell>
                <mxCell id="90" value="Management" style="shape=table;startSize=30;container=1;collapsible=0;childLayout=tableLayout;fontStyle=1;align=center;" parent="58" vertex="1">
                    <mxGeometry x="40" y="400" width="160" height="198" as="geometry"/>
                </mxCell>
                <mxCell id="97" value="" style="shape=tableRow;horizontal=0;startSize=0;swimlaneHead=0;swimlaneBody=0;top=0;left=0;bottom=0;right=0;collapsible=0;dropTarget=0;fillColor=none;points=[[0,0.5],[1,0.5]];portConstraint=eastwest;fontColor=#666666;" parent="90" vertex="1">
                    <mxGeometry y="30" width="160" height="42" as="geometry"/>
                </mxCell>
                <mxCell id="98" value="Makefile" style="shape=partialRectangle;html=1;whiteSpace=wrap;connectable=0;fillColor=none;top=0;left=0;bottom=0;right=0;overflow=hidden;fontColor=#666666;" parent="97" vertex="1">
                    <mxGeometry width="80" height="42" as="geometry">
                        <mxRectangle width="80" height="42" as="alternateBounds"/>
                    </mxGeometry>
                </mxCell>
                <mxCell id="99" value="/tools" style="shape=partialRectangle;html=1;whiteSpace=wrap;connectable=0;fillColor=none;top=0;left=0;bottom=0;right=0;overflow=hidden;fontColor=#666666;" parent="97" vertex="1">
                    <mxGeometry x="80" width="80" height="42" as="geometry">
                        <mxRectangle width="80" height="42" as="alternateBounds"/>
                    </mxGeometry>
                </mxCell>
                <mxCell id="100" style="shape=tableRow;horizontal=0;startSize=0;swimlaneHead=0;swimlaneBody=0;top=0;left=0;bottom=0;right=0;collapsible=0;dropTarget=0;fillColor=none;points=[[0,0.5],[1,0.5]];portConstraint=eastwest;fontColor=#666666;" parent="90" vertex="1">
                    <mxGeometry y="72" width="160" height="42" as="geometry"/>
                </mxCell>
                <mxCell id="101" value="/scripts" style="shape=partialRectangle;html=1;whiteSpace=wrap;connectable=0;fillColor=none;top=0;left=0;bottom=0;right=0;overflow=hidden;fontColor=#666666;" parent="100" vertex="1">
                    <mxGeometry width="80" height="42" as="geometry">
                        <mxRectangle width="80" height="42" as="alternateBounds"/>
                    </mxGeometry>
                </mxCell>
                <mxCell id="102" value="/gitbooks" style="shape=partialRectangle;html=1;whiteSpace=wrap;connectable=0;fillColor=none;top=0;left=0;bottom=0;right=0;overflow=hidden;fontColor=#666666;" parent="100" vertex="1">
                    <mxGeometry x="80" width="80" height="42" as="geometry">
                        <mxRectangle width="80" height="42" as="alternateBounds"/>
                    </mxGeometry>
                </mxCell>
                <mxCell id="103" style="shape=tableRow;horizontal=0;startSize=0;swimlaneHead=0;swimlaneBody=0;top=0;left=0;bottom=0;right=0;collapsible=0;dropTarget=0;fillColor=none;points=[[0,0.5],[1,0.5]];portConstraint=eastwest;fontColor=#666666;" parent="90" vertex="1">
                    <mxGeometry y="114" width="160" height="42" as="geometry"/>
                </mxCell>
                <mxCell id="104" value="/build" style="shape=partialRectangle;html=1;whiteSpace=wrap;connectable=0;fillColor=none;top=0;left=0;bottom=0;right=0;overflow=hidden;fontColor=#666666;" parent="103" vertex="1">
                    <mxGeometry width="80" height="42" as="geometry">
                        <mxRectangle width="80" height="42" as="alternateBounds"/>
                    </mxGeometry>
                </mxCell>
                <mxCell id="105" value="/assets" style="shape=partialRectangle;html=1;whiteSpace=wrap;connectable=0;fillColor=none;top=0;left=0;bottom=0;right=0;overflow=hidden;fontColor=#666666;" parent="103" vertex="1">
                    <mxGeometry x="80" width="80" height="42" as="geometry">
                        <mxRectangle width="80" height="42" as="alternateBounds"/>
                    </mxGeometry>
                </mxCell>
                <mxCell id="106" style="shape=tableRow;horizontal=0;startSize=0;swimlaneHead=0;swimlaneBody=0;top=0;left=0;bottom=0;right=0;collapsible=0;dropTarget=0;fillColor=none;points=[[0,0.5],[1,0.5]];portConstraint=eastwest;fontColor=#666666;" parent="90" vertex="1">
                    <mxGeometry y="156" width="160" height="42" as="geometry"/>
                </mxCell>
                <mxCell id="107" style="shape=partialRectangle;html=1;whiteSpace=wrap;connectable=0;fillColor=none;top=0;left=0;bottom=0;right=0;overflow=hidden;fontColor=#666666;" parent="106" vertex="1">
                    <mxGeometry width="80" height="42" as="geometry">
                        <mxRectangle width="80" height="42" as="alternateBounds"/>
                    </mxGeometry>
                </mxCell>
                <mxCell id="108" value="/website" style="shape=partialRectangle;html=1;whiteSpace=wrap;connectable=0;fillColor=none;top=0;left=0;bottom=0;right=0;overflow=hidden;fontColor=#666666;" parent="106" vertex="1">
                    <mxGeometry x="80" width="80" height="42" as="geometry">
                        <mxRectangle width="80" height="42" as="alternateBounds"/>
                    </mxGeometry>
                </mxCell>
                <mxCell id="109" value="Documentation" style="shape=table;startSize=30;container=1;collapsible=0;childLayout=tableLayout;fontStyle=1;align=center;" parent="58" vertex="1">
                    <mxGeometry x="240" y="274" width="160" height="324" as="geometry"/>
                </mxCell>
                <mxCell id="110" value="" style="shape=tableRow;horizontal=0;startSize=0;swimlaneHead=0;swimlaneBody=0;top=0;left=0;bottom=0;right=0;collapsible=0;dropTarget=0;fillColor=none;points=[[0,0.5],[1,0.5]];portConstraint=eastwest;fontColor=#666666;" parent="109" vertex="1">
                    <mxGeometry y="30" width="160" height="42" as="geometry"/>
                </mxCell>
                <mxCell id="111" value="README.md" style="shape=partialRectangle;html=1;whiteSpace=wrap;connectable=0;fillColor=none;top=0;left=0;bottom=0;right=0;overflow=hidden;fontColor=#666666;" parent="110" vertex="1">
                    <mxGeometry width="160" height="42" as="geometry">
                        <mxRectangle width="160" height="42" as="alternateBounds"/>
                    </mxGeometry>
                </mxCell>
                <mxCell id="116" style="shape=tableRow;horizontal=0;startSize=0;swimlaneHead=0;swimlaneBody=0;top=0;left=0;bottom=0;right=0;collapsible=0;dropTarget=0;fillColor=none;points=[[0,0.5],[1,0.5]];portConstraint=eastwest;fontColor=#666666;" parent="109" vertex="1">
                    <mxGeometry y="72" width="160" height="42" as="geometry"/>
                </mxCell>
                <mxCell id="117" value="CONTRIBUTing.md" style="shape=partialRectangle;html=1;whiteSpace=wrap;connectable=0;fillColor=none;top=0;left=0;bottom=0;right=0;overflow=hidden;fontColor=#666666;" parent="116" vertex="1">
                    <mxGeometry width="160" height="42" as="geometry">
                        <mxRectangle width="160" height="42" as="alternateBounds"/>
                    </mxGeometry>
                </mxCell>
                <mxCell id="118" style="shape=tableRow;horizontal=0;startSize=0;swimlaneHead=0;swimlaneBody=0;top=0;left=0;bottom=0;right=0;collapsible=0;dropTarget=0;fillColor=none;points=[[0,0.5],[1,0.5]];portConstraint=eastwest;fontColor=#666666;" parent="109" vertex="1">
                    <mxGeometry y="114" width="160" height="42" as="geometry"/>
                </mxCell>
                <mxCell id="119" value="LICENSE" style="shape=partialRectangle;html=1;whiteSpace=wrap;connectable=0;fillColor=none;top=0;left=0;bottom=0;right=0;overflow=hidden;fontColor=#666666;" parent="118" vertex="1">
                    <mxGeometry width="160" height="42" as="geometry">
                        <mxRectangle width="160" height="42" as="alternateBounds"/>
                    </mxGeometry>
                </mxCell>
                <mxCell id="120" style="shape=tableRow;horizontal=0;startSize=0;swimlaneHead=0;swimlaneBody=0;top=0;left=0;bottom=0;right=0;collapsible=0;dropTarget=0;fillColor=none;points=[[0,0.5],[1,0.5]];portConstraint=eastwest;fontColor=#666666;" parent="109" vertex="1">
                    <mxGeometry y="156" width="160" height="42" as="geometry"/>
                </mxCell>
                <mxCell id="121" value="CHANGELOG" style="shape=partialRectangle;html=1;whiteSpace=wrap;connectable=0;fillColor=none;top=0;left=0;bottom=0;right=0;overflow=hidden;fontColor=#666666;" parent="120" vertex="1">
                    <mxGeometry width="160" height="42" as="geometry">
                        <mxRectangle width="160" height="42" as="alternateBounds"/>
                    </mxGeometry>
                </mxCell>
                <mxCell id="112" style="shape=tableRow;horizontal=0;startSize=0;swimlaneHead=0;swimlaneBody=0;top=0;left=0;bottom=0;right=0;collapsible=0;dropTarget=0;fillColor=none;points=[[0,0.5],[1,0.5]];portConstraint=eastwest;fontColor=#666666;" parent="109" vertex="1">
                    <mxGeometry y="198" width="160" height="42" as="geometry"/>
                </mxCell>
                <mxCell id="113" value="/docs" style="shape=partialRectangle;html=1;whiteSpace=wrap;connectable=0;fillColor=none;top=0;left=0;bottom=0;right=0;overflow=hidden;fontColor=#666666;" parent="112" vertex="1">
                    <mxGeometry width="160" height="42" as="geometry">
                        <mxRectangle width="160" height="42" as="alternateBounds"/>
                    </mxGeometry>
                </mxCell>
                <mxCell id="114" style="shape=tableRow;horizontal=0;startSize=0;swimlaneHead=0;swimlaneBody=0;top=0;left=0;bottom=0;right=0;collapsible=0;dropTarget=0;fillColor=none;points=[[0,0.5],[1,0.5]];portConstraint=eastwest;fontColor=#666666;" parent="109" vertex="1">
                    <mxGeometry y="240" width="160" height="42" as="geometry"/>
                </mxCell>
                <mxCell id="115" value="/api" style="shape=partialRectangle;html=1;whiteSpace=wrap;connectable=0;fillColor=none;top=0;left=0;bottom=0;right=0;overflow=hidden;fontColor=#666666;" parent="114" vertex="1">
                    <mxGeometry width="160" height="42" as="geometry">
                        <mxRectangle width="160" height="42" as="alternateBounds"/>
                    </mxGeometry>
                </mxCell>
                <mxCell id="122" style="shape=tableRow;horizontal=0;startSize=0;swimlaneHead=0;swimlaneBody=0;top=0;left=0;bottom=0;right=0;collapsible=0;dropTarget=0;fillColor=none;points=[[0,0.5],[1,0.5]];portConstraint=eastwest;fontColor=#666666;" parent="109" vertex="1">
                    <mxGeometry y="282" width="160" height="42" as="geometry"/>
                </mxCell>
                <mxCell id="123" value="/examples" style="shape=partialRectangle;html=1;whiteSpace=wrap;connectable=0;fillColor=none;top=0;left=0;bottom=0;right=0;overflow=hidden;fontColor=#666666;" parent="122" vertex="1">
                    <mxGeometry width="160" height="42" as="geometry">
                        <mxRectangle width="160" height="42" as="alternateBounds"/>
                    </mxGeometry>
                </mxCell>
            </root>
        </mxGraphModel>
    </diagram>
</mxfile>